<svg xmlns="http://www.w3.org/2000/svg" viewBox="0 0 591.1 103.2"><defs><style>.cls-1{fill:#fff;}</style></defs><title>coinmarketcap</title><g id="katman_2" data-name="katman 2"><g id="katman_1-2" data-name="katman 1"><path class="cls-1" d="M88.4,61.7a5.48,5.48,0,0,1-5.5.4c-2-1.2-3.2-3.9-3.2-7.6V43.2c0-5.4-2.1-9.3-5.7-10.3-6.1-1.8-10.7,5.7-12.4,8.5L50.8,58.7V37.4c-.1-4.9-1.7-7.8-4.7-8.7-2-.6-5-.3-7.9,4.1L14.1,71.4A42.66,42.66,0,0,1,9.2,51.6C9.2,28.3,27.9,9.4,50.8,9.4S92.4,28.3,92.4,51.6v.2c.2,4.5-1.2,8.1-4,9.9Zm13.2-10.1h0v-.2C101.5,23.1,78.7,0,50.8,0S0,23.1,0,51.6s22.8,51.6,50.8,51.6A49.92,49.92,0,0,0,85.3,89.4,4.67,4.67,0,0,0,79,82.5l-.1.1a41.09,41.09,0,0,1-59.2-2.7L41.4,45.1V61.2c0,7.7,3,10.2,5.5,10.9s6.3.2,10.4-6.3L69.2,46.5a11.07,11.07,0,0,1,1.1-1.6v9.8c0,7.2,2.9,13,7.9,15.8a14.53,14.53,0,0,0,14.9-.6C98.9,66.1,102,59.5,101.6,51.6Z"/><path class="cls-1" d="M163.4,64.4a4.38,4.38,0,0,0-2.5.8,15.53,15.53,0,0,1-10.8,4.4c-8.4,0-14.3-6.8-14.3-15.4s5.8-15.5,14.3-15.5a16.43,16.43,0,0,1,9.7,3.3,7.58,7.58,0,0,0,1.6.3,4.42,4.42,0,0,0,4.3-4.4,5,5,0,0,0-2.3-3.9,22.6,22.6,0,0,0-13.2-4,23.9,23.9,0,1,0,15.3,42,4.26,4.26,0,0,0,2-3.5A4.06,4.06,0,0,0,163.4,64.4Z"/><path class="cls-1" d="M187.2,44a16.94,16.94,0,0,0-17,16.8,17.2,17.2,0,0,0,17,17.1c8.8,0,16.3-7.9,16.3-17.1A16.61,16.61,0,0,0,187.2,44Zm-.1,25.6c-4.2,0-7.7-3.8-7.7-8.7,0-5.1,3.5-8.2,7.7-8.2,3.9,0,7.2,3.2,7.2,8.2S191,69.6,187.1,69.6Z"/><path class="cls-1" d="M213.7,44.4a4.61,4.61,0,0,0-4.6,4.7V72.7a4.74,4.74,0,0,0,4.6,4.7,4.67,4.67,0,0,0,4.6-4.7V49.1A4.67,4.67,0,0,0,213.7,44.4Z"/><path class="cls-1" d="M213.7,30a5.45,5.45,0,1,0,5.4,5.5A5.46,5.46,0,0,0,213.7,30Z"/><path class="cls-1" d="M243.9,44a13.34,13.34,0,0,0-10.1,4,3.55,3.55,0,1,0-7.1,0V72.7a4.6,4.6,0,1,0,9.2,0V59.9c0-4,1.7-7.4,5.8-7.4,5.8,0,6.3,3.4,6.3,7.4V72.7a4.6,4.6,0,1,0,9.2,0V58.8C257.2,50.9,253.1,44,243.9,44Z"/><path class="cls-1" d="M307.6,30.5a3,3,0,0,0-2,1.2L288.5,50.9a2.46,2.46,0,0,1-1.5.9,2.23,2.23,0,0,1-1.5-.9L268.4,31.7a3.22,3.22,0,0,0-2-1.2,2,2,0,0,0-1.7,1.2v41a4.6,4.6,0,1,0,9.2,0V52l10.7,11.6a3,3,0,0,0,2.4,1.2,3.69,3.69,0,0,0,2.4-1.2L300.1,52V72.7a4.67,4.67,0,0,0,4.6,4.7,4.61,4.61,0,0,0,4.6-4.7v-41A1.74,1.74,0,0,0,307.6,30.5Z"/><path class="cls-1" d="M344.6,44.3a3.5,3.5,0,0,0-3.5,3.6l-.2,1.1a14.39,14.39,0,0,0-10.7-5.1c-9,0-15.5,7.6-15.5,16.8s6.4,17.1,15,17.1c3.6,0,9.3-1.6,11.1-5.1l.2,1.1a3.44,3.44,0,0,0,3.6,3.5,3.59,3.59,0,0,0,3.6-3.6V47.9A3.65,3.65,0,0,0,344.6,44.3ZM331.2,69.6c-4.1,0-7.3-3.9-7.3-8.7s3.3-8.3,7.3-8.3,7.6,3.3,7.6,8.3S335.3,69.6,331.2,69.6Z"/><path class="cls-1" d="M373.4,44h-.9c-2.8.1-5.6.8-9,4a3.55,3.55,0,1,0-7.1,0V72.7a4.6,4.6,0,1,0,9.2,0V59.9c0-3.8,1.1-7.1,6.9-7.4h1a4.2,4.2,0,0,0,4.1-4.2A4.31,4.31,0,0,0,373.4,44Z"/><path class="cls-1" d="M400.4,60.1l8.4-9.2a3.94,3.94,0,0,0,.6-2.1,4.6,4.6,0,0,0-4.4-4.5c-1.6,0-2.9,1.3-4,2.5L390.4,58.5V35.1a4.6,4.6,0,1,0-9.2,0V72.6a4.6,4.6,0,1,0,9.2,0V62.4L401,74.7c1.1,1.4,2.5,2.6,4.1,2.6a4.79,4.79,0,0,0,4.6-4.6,4.39,4.39,0,0,0-.7-2.2Z"/><path class="cls-1" d="M426.8,44c-11,0-15.7,8-15.7,17.2,0,11.7,7.7,16.7,17,16.7,3.5,0,7.2-.5,10-2.6a4.05,4.05,0,0,0,2-3.3,3.78,3.78,0,0,0-3.7-3.8,4.53,4.53,0,0,0-2.4.7,14.93,14.93,0,0,1-6,1.2c-2.3,0-7.6-.9-7.6-6.4H439a3.65,3.65,0,0,0,3.6-3.6C442.4,49.8,435.7,44,426.8,44Zm-6.4,13.8c0-3.9,4.1-5.2,6.6-5.2s6.6,1.3,6.7,5.2Z"/><path class="cls-1" d="M464.6,69.6h-1.3c-2.8,0-3.1-1.3-3.1-7.6V52.5H464a4.35,4.35,0,0,0,4.1-4.2A4.23,4.23,0,0,0,464,44h-3.8V35.3a4.67,4.67,0,0,0-4.6-4.7,4.61,4.61,0,0,0-4.6,4.7V44h-2.4a4.25,4.25,0,0,0,0,8.5H451V63.8c0,10.9,4.1,14,11.1,14h2.5a4.19,4.19,0,0,0,4.1-4.1A4.12,4.12,0,0,0,464.6,69.6Z"/><path class="cls-1" d="M509.1,64.4a4.38,4.38,0,0,0-2.5.8,15.53,15.53,0,0,1-10.8,4.4c-8.4,0-14.3-6.8-14.3-15.4s5.8-15.5,14.3-15.5a16.43,16.43,0,0,1,9.7,3.3,7.58,7.58,0,0,0,1.6.3,4.42,4.42,0,0,0,4.3-4.4,5,5,0,0,0-2.3-3.9,22.38,22.38,0,0,0-13.2-4,23.9,23.9,0,1,0,15.3,42,4.26,4.26,0,0,0,2-3.5A4.06,4.06,0,0,0,509.1,64.4Z"/><path class="cls-1" d="M545.8,44.3a3.5,3.5,0,0,0-3.5,3.6l-.2,1.1a14.39,14.39,0,0,0-10.7-5.1c-9,0-15.5,7.6-15.5,16.8s6.4,17.1,15,17.1c3.6,0,9.3-1.6,11.1-5.1l.2,1.1a3.44,3.44,0,0,0,3.6,3.5,3.59,3.59,0,0,0,3.6-3.6V47.9A3.65,3.65,0,0,0,545.8,44.3ZM532.4,69.6c-4,0-7.3-3.9-7.3-8.7s3.2-8.3,7.3-8.3,7.6,3.3,7.6,8.3S536.5,69.6,532.4,69.6Z"/><path class="cls-1" d="M575.6,44a14.79,14.79,0,0,0-10.8,4.4c0-2.3-1.5-4-3.5-4a3.59,3.59,0,0,0-3.6,3.6V86.8a4.6,4.6,0,1,0,9.2,0V75.1c2.5,1.9,6.5,2.7,9.2,2.8,8.7,0,15-7.9,15-17.1S584.5,44,575.6,44Zm-1.1,25.6c-4.1,0-7.6-3.7-7.6-8.7s3.5-8.3,7.6-8.3,7.3,3.3,7.3,8.3C581.8,65.7,578.6,69.6,574.5,69.6Z"/></g></g></svg>